<svg xmlns="http://www.w3.org/2000/svg" xmlns:xlink="http://www.w3.org/1999/xlink" width="289" zoomAndPan="magnify" viewBox="0 0 216.75 311.25" height="415" preserveAspectRatio="xMidYMid meet" version="1.0"><defs><g/><clipPath id="56352c8350"><path d="M 51.226562 177.824219 L 98.113281 177.824219 L 98.113281 194.5 L 51.226562 194.5 Z M 51.226562 177.824219 " clip-rule="nonzero"/></clipPath></defs><g fill="#000000" fill-opacity="1"><g transform="translate(0.81236, 257.737212)"><g><path d="M 8.265625 0 L 8.265625 -20.90625 L 17.5625 -21.6875 C 22.03125 -22.03125 24.265625 -24.441406 24.265625 -28.921875 L 24.265625 -148.96875 L 9.546875 -149.734375 L 9.546875 -171.6875 L 56.015625 -171.6875 L 129.078125 -53.1875 L 129.609375 -53.1875 L 129.609375 -148.96875 L 112.5625 -149.734375 L 112.5625 -171.6875 L 175.5625 -171.6875 L 175.5625 -150.765625 L 166.265625 -150 C 162.128906 -149.65625 160.0625 -146.988281 160.0625 -142 L 160.0625 0 L 129.859375 0 L 55.25 -120.3125 L 54.734375 -120.3125 L 54.734375 -22.71875 L 71.515625 -21.9375 L 71.515625 0 Z M 8.265625 0 "/></g></g></g><g clip-path="url(#56352c8350)"><path fill="#000000" d="M 51.226562 177.824219 L 98.128906 177.824219 L 98.128906 194.394531 L 51.226562 194.394531 Z M 51.226562 177.824219 " fill-opacity="1" fill-rule="nonzero"/></g><g fill="#000000" fill-opacity="1"><g transform="translate(73.048727, 257.723994)"><g><path d="M 56.3125 -28.921875 L 56.3125 -146.203125 L 36.15625 -146.203125 C 32.195312 -146.203125 30.21875 -143.53125 30.21875 -138.1875 L 30.21875 -126.046875 L 3.875 -127.859375 L 3.875 -171.765625 L 138.96875 -171.765625 L 138.96875 -127.859375 L 112.625 -126.046875 L 112.625 -138.1875 C 112.625 -141.113281 112.191406 -143.179688 111.328125 -144.390625 C 110.460938 -145.597656 108.394531 -146.203125 105.125 -146.203125 L 87.5625 -146.203125 L 87.5625 -22.734375 L 107.96875 -21.953125 L 107.96875 0 L 35.125 0 L 35.125 -20.921875 L 48.8125 -21.703125 C 53.8125 -22.210938 56.3125 -24.617188 56.3125 -28.921875 Z M 56.3125 -28.921875 "/></g></g></g><g fill="#000000" fill-opacity="1"><g transform="translate(28.817254, 283.535739)"><g><path d="M 0.53125 0 L 0.53125 -1.265625 L 1.046875 -1.3125 C 1.347656 -1.34375 1.5 -1.488281 1.5 -1.75 L 1.5 -9.03125 L 0.609375 -9.078125 L 0.609375 -10.40625 L 4.90625 -10.40625 C 6.4375 -10.40625 7.628906 -10 8.484375 -9.1875 C 9.347656 -8.375 9.78125 -7.171875 9.78125 -5.578125 C 9.78125 -4.585938 9.648438 -3.722656 9.390625 -2.984375 C 9.128906 -2.242188 8.773438 -1.664062 8.328125 -1.25 C 7.429688 -0.414062 6.316406 0 4.984375 0 Z M 3.40625 -8.890625 L 3.40625 -1.5 L 5.015625 -1.5 C 5.910156 -1.5 6.609375 -1.820312 7.109375 -2.46875 C 7.609375 -3.113281 7.859375 -4.054688 7.859375 -5.296875 C 7.859375 -7.691406 6.84375 -8.890625 4.8125 -8.890625 Z M 3.40625 -8.890625 "/></g></g></g><g fill="#000000" fill-opacity="1"><g transform="translate(51.744705, 283.535739)"><g><path d="M 7.96875 0 L 0.53125 0 L 0.53125 -1.265625 L 1.046875 -1.3125 C 1.347656 -1.34375 1.5 -1.488281 1.5 -1.75 L 1.5 -9.03125 L 0.609375 -9.078125 L 0.609375 -10.40625 L 7.78125 -10.40625 L 7.78125 -7.8125 L 6.1875 -7.703125 L 6.1875 -8.328125 C 6.1875 -8.503906 6.160156 -8.628906 6.109375 -8.703125 C 6.054688 -8.773438 5.929688 -8.8125 5.734375 -8.8125 L 3.40625 -8.8125 L 3.40625 -6.140625 L 7.03125 -6.140625 L 7.03125 -4.546875 L 3.40625 -4.546875 L 3.40625 -1.609375 L 5.9375 -1.609375 C 6.125 -1.609375 6.242188 -1.644531 6.296875 -1.71875 C 6.347656 -1.800781 6.375 -1.929688 6.375 -2.109375 L 6.375 -2.890625 L 7.96875 -2.78125 Z M 7.96875 0 "/></g></g></g><g fill="#000000" fill-opacity="1"><g transform="translate(72.857234, 283.535739)"><g><path d="M 3.765625 -1.40625 C 5.023438 -1.40625 5.65625 -1.90625 5.65625 -2.90625 C 5.65625 -3.425781 5.378906 -3.816406 4.828125 -4.078125 C 4.535156 -4.222656 4.15625 -4.359375 3.6875 -4.484375 C 3.21875 -4.609375 2.828125 -4.734375 2.515625 -4.859375 C 2.210938 -4.992188 1.90625 -5.175781 1.59375 -5.40625 C 0.976562 -5.863281 0.671875 -6.566406 0.671875 -7.515625 C 0.671875 -8.472656 1 -9.222656 1.65625 -9.765625 C 2.320312 -10.316406 3.191406 -10.59375 4.265625 -10.59375 C 5.335938 -10.59375 6.332031 -10.378906 7.25 -9.953125 L 7.25 -7.609375 L 5.65625 -7.5 L 5.65625 -8.40625 C 5.65625 -8.5625 5.632812 -8.675781 5.59375 -8.75 C 5.476562 -8.945312 5.109375 -9.046875 4.484375 -9.046875 C 3.859375 -9.046875 3.394531 -8.9375 3.09375 -8.71875 C 2.800781 -8.5 2.65625 -8.160156 2.65625 -7.703125 C 2.65625 -7.367188 2.78125 -7.078125 3.03125 -6.828125 C 3.195312 -6.660156 3.445312 -6.519531 3.78125 -6.40625 C 4.113281 -6.300781 4.460938 -6.191406 4.828125 -6.078125 C 5.203125 -5.960938 5.53125 -5.835938 5.8125 -5.703125 C 6.101562 -5.566406 6.40625 -5.378906 6.71875 -5.140625 C 7.351562 -4.671875 7.671875 -3.941406 7.671875 -2.953125 C 7.671875 -1.972656 7.316406 -1.203125 6.609375 -0.640625 C 5.910156 -0.078125 4.984375 0.203125 3.828125 0.203125 C 2.671875 0.203125 1.632812 -0.0078125 0.71875 -0.4375 L 0.71875 -2.90625 L 2.3125 -3.015625 L 2.3125 -2.0625 C 2.3125 -1.90625 2.332031 -1.789062 2.375 -1.71875 C 2.414062 -1.644531 2.539062 -1.570312 2.75 -1.5 C 2.96875 -1.4375 3.304688 -1.40625 3.765625 -1.40625 Z M 3.765625 -1.40625 "/></g></g></g><g fill="#000000" fill-opacity="1"><g transform="translate(93.547323, 283.535739)"><g><path d="M 1.46875 -1.828125 L 1.46875 -9.03125 L 0.578125 -9.078125 L 0.578125 -10.40625 L 4.375 -10.40625 L 4.375 -9.140625 L 3.84375 -9.09375 C 3.539062 -9.0625 3.390625 -8.894531 3.390625 -8.59375 L 3.390625 -1.375 L 4.296875 -1.328125 L 4.296875 0 L 0.5 0 L 0.5 -1.265625 L 1.015625 -1.3125 C 1.171875 -1.332031 1.285156 -1.375 1.359375 -1.4375 C 1.429688 -1.507812 1.46875 -1.640625 1.46875 -1.828125 Z M 1.46875 -1.828125 "/></g></g></g><g fill="#000000" fill-opacity="1"><g transform="translate(110.873555, 283.535739)"><g><path d="M 8.828125 -3.640625 L 8.828125 -0.8125 C 7.859375 -0.144531 6.648438 0.1875 5.203125 0.1875 C 3.765625 0.1875 2.640625 -0.257812 1.828125 -1.15625 C 1.023438 -2.0625 0.625 -3.40625 0.625 -5.1875 C 0.625 -5.96875 0.722656 -6.671875 0.921875 -7.296875 C 1.128906 -7.921875 1.394531 -8.4375 1.71875 -8.84375 C 2.050781 -9.25 2.4375 -9.585938 2.875 -9.859375 C 3.71875 -10.347656 4.664062 -10.59375 5.71875 -10.59375 C 6.78125 -10.59375 7.769531 -10.378906 8.6875 -9.953125 L 8.6875 -7.296875 L 7.09375 -7.1875 L 7.09375 -8.40625 C 7.09375 -8.5625 7.070312 -8.675781 7.03125 -8.75 C 6.914062 -8.945312 6.441406 -9.046875 5.609375 -9.046875 C 3.585938 -9.046875 2.578125 -7.800781 2.578125 -5.3125 C 2.578125 -2.675781 3.488281 -1.359375 5.3125 -1.359375 C 6.03125 -1.359375 6.582031 -1.484375 6.96875 -1.734375 L 6.96875 -4.078125 L 6.953125 -4.078125 L 5.75 -4.125 L 5.75 -5.453125 L 9.640625 -5.453125 L 9.640625 -4.203125 L 9.28125 -4.171875 C 9.113281 -4.148438 8.992188 -4.101562 8.921875 -4.03125 C 8.859375 -3.96875 8.828125 -3.835938 8.828125 -3.640625 Z M 8.828125 -3.640625 "/></g></g></g><g fill="#000000" fill-opacity="1"><g transform="translate(133.425507, 283.535739)"><g><path d="M 0.5 0 L 0.5 -1.265625 L 1.0625 -1.3125 C 1.332031 -1.332031 1.46875 -1.476562 1.46875 -1.75 L 1.46875 -9.03125 L 0.578125 -9.078125 L 0.578125 -10.40625 L 3.390625 -10.40625 L 7.828125 -3.21875 L 7.859375 -3.21875 L 7.859375 -9.03125 L 6.828125 -9.078125 L 6.828125 -10.40625 L 10.640625 -10.40625 L 10.640625 -9.140625 L 10.078125 -9.09375 C 9.828125 -9.070312 9.703125 -8.910156 9.703125 -8.609375 L 9.703125 0 L 7.875 0 L 3.34375 -7.296875 L 3.3125 -7.296875 L 3.3125 -1.375 L 4.34375 -1.328125 L 4.34375 0 Z M 0.5 0 "/></g></g></g><g fill="#000000" fill-opacity="1"><g transform="translate(156.978795, 283.535739)"><g><path d="M 7.96875 0 L 0.53125 0 L 0.53125 -1.265625 L 1.046875 -1.3125 C 1.347656 -1.34375 1.5 -1.488281 1.5 -1.75 L 1.5 -9.03125 L 0.609375 -9.078125 L 0.609375 -10.40625 L 7.78125 -10.40625 L 7.78125 -7.8125 L 6.1875 -7.703125 L 6.1875 -8.328125 C 6.1875 -8.503906 6.160156 -8.628906 6.109375 -8.703125 C 6.054688 -8.773438 5.929688 -8.8125 5.734375 -8.8125 L 3.40625 -8.8125 L 3.40625 -6.140625 L 7.03125 -6.140625 L 7.03125 -4.546875 L 3.40625 -4.546875 L 3.40625 -1.609375 L 5.9375 -1.609375 C 6.125 -1.609375 6.242188 -1.644531 6.296875 -1.71875 C 6.347656 -1.800781 6.375 -1.929688 6.375 -2.109375 L 6.375 -2.890625 L 7.96875 -2.78125 Z M 7.96875 0 "/></g></g></g><g fill="#000000" fill-opacity="1"><g transform="translate(178.091318, 283.535739)"><g><path d="M 0.5 0 L 0.5 -1.265625 L 1.015625 -1.3125 C 1.316406 -1.34375 1.46875 -1.488281 1.46875 -1.75 L 1.46875 -9.03125 L 0.578125 -9.078125 L 0.578125 -10.40625 L 4.859375 -10.40625 C 6.066406 -10.40625 6.992188 -10.179688 7.640625 -9.734375 C 8.285156 -9.285156 8.609375 -8.550781 8.609375 -7.53125 C 8.609375 -6.820312 8.421875 -6.238281 8.046875 -5.78125 C 7.679688 -5.320312 7.242188 -4.988281 6.734375 -4.78125 C 7.109375 -4.644531 7.40625 -4.320312 7.625 -3.8125 L 8.75 -1.359375 L 9.640625 -1.328125 L 9.640625 0 L 5.78125 0 L 5.78125 -1.265625 L 6.234375 -1.3125 C 6.472656 -1.34375 6.59375 -1.4375 6.59375 -1.59375 C 6.59375 -1.65625 6.570312 -1.726562 6.53125 -1.8125 L 5.796875 -3.375 C 5.679688 -3.632812 5.550781 -3.820312 5.40625 -3.9375 C 5.269531 -4.050781 5.070312 -4.109375 4.8125 -4.109375 L 3.375 -4.109375 L 3.375 -1.375 L 4.40625 -1.328125 L 4.40625 0 Z M 3.375 -5.59375 L 4.75 -5.59375 C 6.03125 -5.59375 6.671875 -6.164062 6.671875 -7.3125 C 6.671875 -7.96875 6.5 -8.394531 6.15625 -8.59375 C 5.820312 -8.789062 5.28125 -8.890625 4.53125 -8.890625 L 3.375 -8.890625 Z M 3.375 -5.59375 "/></g></g></g></svg>